<svg width="218" height="297" viewBox="0 0 218 297" fill="none" xmlns="http://www.w3.org/2000/svg">
<path d="M217.3 185.92C217.3 267.75 168.66 296.32 108.65 296.32C107.26 296.32 105.87 296.3 104.49 296.27C101.71 296.21 98.95 296.08 96.23 295.89C42.07 292.06 0 262.02 0 185.92C0 107.18 100.62 7.81 108.2 0.440002L108.201 0.436157L108.203 0.432861L108.206 0.430725L108.21 0.429993C108.5 0.139993 108.65 0 108.65 0C108.65 0 217.3 104.1 217.3 185.92Z" fill="#05CE91"/>
<path d="M104.69 283.8L144.43 228.28L104.59 289.9L104.49 296.27C101.71 296.21 98.95 296.08 96.23 295.89L100.51 214.03L100.48 213.39L100.55 213.28L100.96 205.54L61.0201 143.77L101.08 199.74L101.18 201.38L104.41 139.53L70.22 75.7L104.83 128.68L108.2 0.440002L108.21 3.05176e-05V0.430023L107.65 101.55L141.69 61.46L107.51 110.26L106.61 165.64L138.4 112.49L106.48 173.79L105.98 204.58L152.11 130.6L105.8 215.32L104.69 283.8Z" fill="#3F3D56"/>
</svg>
